<svg version="1.1" id="Uploaded to svgrepo.com" xmlns="http://www.w3.org/2000/svg" xmlns:xlink="http://www.w3.org/1999/xlink" viewBox="0 0 32 32" xml:space="preserve" fill="#000000"><g id="SVGRepo_bgCarrier" stroke-width="0"></g><g id="SVGRepo_tracerCarrier" stroke-linecap="round" stroke-linejoin="round"></g><g id="SVGRepo_iconCarrier"> <style type="text/css"> .bentblocks_een{fill:#ffffff;} </style> <path class="bentblocks_een" d="M12,18.209c-1.354,0.196-3.01,0.559-3.657,1.206c-1.172,1.172-1.172,3.071,0,4.243 c1.172,1.172,3.071,1.172,4.243,0c0.647-0.647,1.01-2.302,1.206-3.657h4.417c0.196,1.354,0.559,3.01,1.206,3.657 c1.172,1.172,3.071,1.172,4.243,0c1.172-1.172,1.172-3.071,0-4.243c-0.647-0.647-2.302-1.01-3.657-1.206v-4.417 c1.354-0.196,3.01-0.559,3.657-1.206c1.172-1.172,1.172-3.071,0-4.243c-1.171-1.172-3.071-1.172-4.243,0 c-0.647,0.647-1.01,2.302-1.206,3.657h-4.417c-0.196-1.354-0.559-3.01-1.206-3.657c-1.172-1.172-3.071-1.172-4.243,0 c-1.172,1.172-1.172,3.071,0,4.243c0.647,0.647,2.302,1.01,3.657,1.206V18.209z M11.149,22.265 c-0.388,0.366-1.006,0.363-1.391-0.022c-0.382-0.382-0.39-1-0.022-1.392c0.28-0.195,1.048-0.408,1.987-0.575 C11.554,21.214,11.341,21.988,11.149,22.265z M22.265,20.851c0.368,0.391,0.36,1.009-0.022,1.391 c-0.385,0.385-1.003,0.388-1.391,0.022c-0.195-0.28-0.408-1.048-0.575-1.987C21.214,20.446,21.988,20.659,22.265,20.851z M20.851,9.735c0.387-0.364,1.005-0.365,1.391,0.022c0.382,0.382,0.39,1,0.022,1.392c-0.28,0.195-1.048,0.408-1.986,0.575 C20.446,10.786,20.659,10.012,20.851,9.735z M9.735,11.149c-0.368-0.391-0.36-1.009,0.022-1.391 c0.388-0.388,1.006-0.385,1.392-0.022c0.195,0.28,0.408,1.048,0.575,1.987C10.786,11.554,10.012,11.341,9.735,11.149z M18,14v4h-4 v-4H18z M26,4H6C4.9,4,4,4.9,4,6v20c0,1.1,0.9,2,2,2h20c1.1,0,2-0.9,2-2V6C28,4.9,27.1,4,26,4z M26,26H6V6h20V26z"></path> </g></svg>